<svg id="Layer_1" xmlns="http://www.w3.org/2000/svg" viewBox="0 0 295.2 64">
    <path fill="#333" d="M82.3 32.1c0-2 1-6 5-6 3.6 0 4.5 2.7 4.5 6h-9.5zm14.3 14.1c-1 .4-2.7.9-4.8.9-7.4 0-9.5-7.4-9.5-12.8h14.8c0-4.4-1.4-9.9-9.6-9.9-7 0-10.9 3.8-10.9 11.7 0 8.7 4.8 13.4 12.8 13.4 3.5 0 6.2-1 7.2-1.4v-1.9zM124.5 48.2c-1.3.6-3.6 1.3-6.7 1.3-8.4 0-12.3-5-12.3-13.6 0-6.2 2.9-11.4 10.7-11.4 4.1 0 8.5 2 8.5 5.4 0 1.9-1.6 2.8-3.2 2.8-3.2 0-2.8-3.7-3.2-4.7-.5-1.6-1.5-1.7-2.5-1.7-3.2 0-4.5 3.2-4.5 8.6 0 5.2 1.8 12.4 8.6 12.4 1.9 0 3.8-.5 4.7-.8l-.1 1.7zM139 36.9c0-5.5.9-10.8 5.5-10.8 4.5 0 5.5 5.2 5.5 10.8 0 5.5-.9 10.8-5.5 10.8-4.5-.1-5.5-5.3-5.5-10.8zm5.5 12.5c7.6 0 11.2-4.1 11.2-12.5 0-8.5-3.6-12.5-11.2-12.5s-11.2 4.1-11.2 12.5 3.7 12.5 11.2 12.5zM179.8 48.8c-.9.4-2 .6-3 .6-4.6 0-8.5-.7-8.5-6.8V27h-4.2v-1.5c6.2 0 7.7-5.4 8-9.3h1.5v8.7h6.8V27h-6.8v15.6c0 3.5 1.5 4.5 4.2 4.5.7 0 1.3-.1 1.9-.3v2h.1zM189.4 47.7c3 0 3.9-.9 3.9-4.5V30.9c0-3.7-1.9-4.2-3.9-4.2v-1.1l9.2-1.3v6.1h.1c.9-2.3 2.8-6.1 7.1-6.1 1.2 0 2.8 1 2.8 2.7 0 1.8-1.3 2.9-2.8 2.9-1.9 0-1.5-1.2-3.2-1.2-1.6 0-4 3.2-4 8.6v5.8c0 3.6.9 4.5 3.9 4.5v1.1h-13.1v-1zM235.1 43.3h-.1c-1.1 2.1-3.3 6.2-7.9 6.2-5.9 0-6.9-3-6.9-6.9V30.9c0-3.7-1.9-4.2-3.9-4.2v-1.1l9.2-1.3v13.9c0 6.3.9 8 4 8 2.7 0 5.7-5.4 5.7-8.7v-6.6c0-3.7-1.9-4.2-3.9-4.2v-1.1l9.2-1.3v18.5c0 3.7 1.9 4.2 3.9 4.2v1.1l-9.2 1.3v-6.1h-.1zM267.6 31.4c-.2-1.8-1.3-5.3-5.2-5.3-2.2 0-3.9 1.5-3.9 3.4 0 3.4 6 4.7 9.2 7.2 1.6 1.2 2.8 3 2.8 5.6 0 4.3-3.4 7.1-9.4 7.1-3.1 0-6.1-.6-7.3-.9l-.3-7h1.5c0 3 2 6.2 5.9 6.2 2.3 0 4.8-1.3 4.8-4 0-3.4-5.1-4.4-8.2-6.5-2.6-1.8-3.8-3.2-3.8-6.1 0-4.7 4.1-6.7 9.1-6.7 2.5 0 4.3.5 6 .9l.3 6.2-1.5-.1zM294.6 48.8c-.9.4-2 .6-3 .6-4.6 0-8.5-.7-8.5-6.8V27h-4.2v-1.5c6.2 0 7.7-5.4 8-9.3h1.5v8.7h6.8V27h-6.8v15.6c0 3.5 1.5 4.5 4.2 4.5.7 0 1.3-.1 1.9-.3v2h.1z"/>
    <g>
        <path fill="#78a22f" d="M40 26.9c-1.9-3-5.2-3.3-8.2-3.3-1.9.4-3.7 1.1-5.2 2.6-1.1 1.9-2 3.6-1.6 5.8 1.3 5.3 3.9 8.8 10.5 7.7 2.6-.7 3.9-3.6 4.5-6.6.4 0 2.1.2 2.2 0 0-.4-1-4.2-2.2-6.2zm-3.1 6.2c0 3.4-3.6 4.2-6.5 3.3-3.7-1.5-3.8-6.8-.1-9 3-1.5 6.6-.1 7.7 2.9.2.5.5 2.1.3 2.4-.3.2-1.4-.4-1.4.4zM32.8 11.2c.8 0 1.7-.3 2.4.1.4.7.1 2.4 0 3.2-1.9.1-8.5 1.5-8.8 1.1-.5-.5-2.1-3.1-1-3.1 2.3-.8 5.1-1.3 7.4-1.3zM12.7 34.8c.1-.4 2.8-.4 2.9-.3.2.3 1.7 6.5 1.9 6.8.3.4.3.8 0 1l-2 1s-.4.2-.6-.2c-.2-.5-2.4-7.5-2.2-8.3zM17.7 17.9c.6-.1 2.2 1 2.3 1.4.1.3-2 3.9-2.2 4.4-.2.6-1.3 2.3-1.6 2.6-.4.2-2.3-.6-2.7-.8-.4-.2.9-2.5 1.2-3.3.2-.8 3-4.3 3-4.3zM23.8 47.4c.5 0 2.3.8 3.4 1.1 1.1.2 3.5.5 3.5.5s.2.1.2.5c0 .3-.6 2.8-.6 2.8s-2.9-.4-3.6-.6-3.3-1.6-3.6-1.6c-.3 0-.2-.5-.2-.5l.9-2.2zM37.7 48s6.1-3.4 6.4-3.4c.3 0 2.2 2 2.2 2l-.1.4s-2.6 1.9-3.5 2.3c-.9.5-4.4 2.3-4.8 2.2-.4-.1-.8-2.6-.7-2.9.1-.3.5-.6.5-.6zM49.4 32.6c.3-.5 2.3-.2 2.3-.2s.4-.1.5.3c.1.4-.2 2.9-.4 4-.1 1.1-.7 4.1-.9 4.2-.2.1-.5-.1-.5-.1s-2.4-.8-2.5-1.3c-.2-.5 1.5-6.9 1.5-6.9zM50.8 21.2S49 23 48.3 23s-1.7-1.8-2.5-2.8c-.8-1.1-2.6-2.9-2.9-3-.4-.1-.1-.7-.1-.7s1.1-1.5 1.4-1.8c.3-.2.7 0 .7 0s2.7 2.2 3 2.7c.9 1.3 1 1.1 2.9 3.8z"/>
        <path fill="#78a22f" d="M46.4 32.4s2.4.2 2.7 0c.3-.1.2-.5.2-.5s0-2.9-.1-4.2-.5-4-.8-4.3c-.2-.3-.5-.1-.5-.1l-2.1.8s-1.5-1.8-2.5-2.8c-.9-.9-2.1-1.9-2.2-2.3-.1-.4 1.1-1.6 1.2-1.9.2-.3-.1-.4-.1-.4s-2.8-1.1-3.4-1.3c-.6-.2-3.6-1.1-3.8-.7-.2.3-.3 1.9-.5 2.5s-2.1.4-3.7.5-3.4.6-3.6.5-.9-2.6-1.3-2.6c-.7 0-4.8 2.9-5.4 3.9 0 0-.6.3-.1.6.5.2 1.5 1.4 1.5 1.9s-.9 2-1.3 2.5-.8 2.5-1.3 2.8c-.5.4-2.3-.5-2.7-.6-.4-.1-.4.2-.4.2s-.6 6.8-.6 7.1-.1.6.6.6 1.8-.5 2.1-.2c.4.2 1.5 4.7 1.6 5.3s0 1-.2 1.2-1.5.6-1.8.8c-.4.2-.5.7-.1 1.1.3.4 2.3 2 2.7 2.5.3.5 3.2 2.3 3.5 2.1.4-.2.2-.5.2-.5s.2-1.8.7-1.9c.5-.1 5.1 1.1 5.6 1.4.5.4.1 2.3.1 2.3s.1.5.5.5 2.5-.4 2.9-.5c1.1-.1 2.1 0 2.5-.1.3-.1.5-.5.5-.5l-.4-2.5s2-1.2 2.6-1.4 2.5-1.4 2.9-1.4c.5 0 1.5 1.7 1.8 1.7.4 0 1.4-1.4 2-2.3.6-.9 1.7-2 1.7-2.3s-1.9-1.1-2.3-1.5c-.4-.5.4-2 .6-2.7.3-.8.5-3.3.5-3.3zm-2.1 0c0 .1-.1.6-.3.6-.6.2-1.6-.2-1.6.3s-.5 2.9-1.1 4-1.2 2.5-2.2 3.2c-1.1.7-2.9 2-4 2.2s-3.2.7-4.2.5c-1.1-.2-3.5-.4-5.1-2.2-1.6-1.9-3.6-4.7-3.6-5.5s-.9-3.4-.2-6.1c.7-2.7 1.3-4.5 3.4-6.2 2.2-1.9 4.3-1.8 4.3-1.8 1.9-.5 3.4-.8 4.6-.5 1.2.4 4.2 1.2 5.1 2 .9.8 2.6 1.9 3.7 4.3s1.3 3.9 1.2 5.2z"/>
        <path fill="#78a22f" d="M63.7 27.6c-.2-1.4.6-1-1.6-7.1s-4.8-10.3-9.3-13.9-7.5-4.5-9.6-5.3C41.1.5 35.9 0 32.6 0c0 0-2.8.3-3.9.5-1.1.3-6.2 2-8.6 3.2-2.4 1.3-5 2.8-6.8 4s-5.6 5.1-6.6 5.9c-1 .8-3.7 4.3-4.4 6.5s-1.1 5.1-1.1 6.1S0 31 0 32c0 1.1.4 3.3.6 4.1.3.9 2.2 8.5 4.5 12.3 2.4 3.8 3.1 5.3 5.2 7.4 1.1 1.1 1.1.9 3 2.1 1 .6 1.4 1.2 4.9 3.1 3.4 2 8.3 2.1 10 2.5 1.7.5 7.9.7 10.1.2 2-.5 5.7-2.1 6.5-2.3.8-.2 5.1-2 6-2.9.9-1 1.2-1.2 2.3-2.2.8-.8 2.5-3.1 3.2-3.9s2.7-2.6 3.5-4.2 1.2-2.7 1.8-4.2 1.6-4.8 2.3-7.5c.6-2.6 0-7.5-.2-8.9zm-1.9-1c-.1.3-1.4.1-1.5.5s.4 3.6.4 5.5-.5 8.2-1.3 9.6c-.6 1.2-1.1 2.3-1.5 3.1-.4.9-.9 2.5-1.6 3.3-.4.5-2.4 3-3.1 3.7-.8.8-2.9 4.4-8 6.2-5.1 1.8-5.9 1.9-9.3 2-1.9.1-2.3.5-4.1.3-3.3-.4-10.1-1.9-11.6-2.6-1.6-.8-4.5-2.1-5.7-3.1-1.1-1-2.4-1.9-3-2.6s-2.6-3.7-3.4-5c-.8-1.4-2.7-4.8-3.1-6-.4-1.2-1.4-4.7-1.5-7.3-.1-2.7-.3-5.2 1.1-9.4S8.4 15 9.9 14s2.9-4.3 9.6-7.5S32 2.6 32 2.6c2.6-.2 10 .9 11 1.6s5.5 2.1 6.8 3.2c1.3 1.2 3.7 2.4 6.2 5.8s3.3 6 3.8 7.3c.5 1.1 2.1 5.8 2 6.1z"/>
        <path fill="#78a22f" d="M59.6 26.3c-.7-1.6-2.2-5.9-3.4-7.4-1.9-2.4-5.8-7.1-9.1-9.2-4.4-2.7-9.7-3.6-14.4-3.6-2.3 0-6.1.4-8.8 1.4S15.8 12 15.8 12c-4.5 3.1-7.7 9.4-8.7 12.7-1 3.3-.8 9.6-.2 13.2.6 3.6 3 8.3 4.1 9.6s1.8 1.8 2.7 2.7c1 1 1.6 2.1 2.4 2.7.8.7 2.7 1.5 6.1 3 3.3 1.6 7.1 2.4 9.9 2.5 2.4.1 5.4-.3 6.9-.8s4.2-1.1 5.1-1.7c1.2-.8 3.8-2.5 4.8-3.2 1-.8 2.5-2.8 3.3-3.7.8-.9 2.4-2.5 2.7-3s1.3-2.8 1.8-3.9 1.4-6.5 1.5-7.7c.1-1.3-.3-6.7-.1-7.1.2-.4 1.1-.3 1.5-.4.2 0 .3.2 0-.6zm-4.1-1.5c0 .4-1.1.5-1.4.7-.3.2.7 2.6.8 3.9.1 1.3.6 2.4.1 5.7s-1 4.9-1.3 5.6c-.3.7-1.3 3.8-2.3 5-.9 1.1-2.5 4.4-7.3 6.7-4.7 2.3-6.4 2.6-11 2.5-4.5-.2-8.4-.9-10.5-2.5s-2.7-.8-5.4-3.2c-2.6-2.5-3.4-2.5-5.9-8.1-2.4-5.6-1.7-9-1.6-11.6.1-2.5.9-6.1 2.8-8.6 2-2.5 3.2-4.2 3.6-4.7.4-.5.7-.8 1.9-1.6s6.5-4 7.5-4.5c1.1-.5 2.4-.9 3.3-1 1-.1 4.1-.2 4.1-.2 3.1 0 9.6 1.5 12.9 3.6 3.3 2.2 6.2 6 6.9 7 1 1 2.8 4.7 2.8 5.3z"/>
    </g>
</svg>
