<!-- 
COLLECTION: Gis Mapping Icons
LICENSE: GPL License
AUTHOR: Viglino 
-->
<svg xmlns="http://www.w3.org/2000/svg" viewBox="0 0 226.57 256">
  <g>
    <path fill="#002A86" d="M127.67,48.52c-5.28.02-7.34.18-10.44.84-16.59,3.52-29.23,11.96-38.31,25.61-6.93,10.42-9.8,20.51-9.8,34.25,0,12.28,2.79,21.71,9.29,31.31,10.7,15.81,24.28,23.73,44.1,25.78,4.68.48,13.96.23,18.06-.51,6.69-1.21,14.87-4.5,20.35-8.2,10.52-7.1,19.76-20.65,23.67-34.54,3.12-11.09,3.06-22.96-.2-33.11-5.81-18.1-21.02-31.19-40.77-35.22-4.98-1.01-14.2-1.38-19.02-.74-1.75.23-3.91.51-4.77.62-1.09.13-2.02.4-2.76.99-.77.6-1.19,1.54-1.19,2.51,0,.75.22,1.66.99,2.5.73.8,1.89,1.75,4.09,3.53,1.85,1.51,3.74,3.2,4.54,3.97l-.28.04c-4.36.68-9.88,2.08-15,3.81-1.25.42-2.41.8-3.24,1.05l-.1.03v-.06c-.52-3.43-.87-6.89-1.06-10.36l-.18-3.96.97-.46c5.9-2.79,18.07-5.52,24.74-5.56,1.52,0,2.58-.07,3.43-.36.41-.14,1.06-.48,1.27-1.21.22-.77-.21-1.41-.55-1.74-.39-.39-.87-.49-1.2-.56-.38-.08-.83-.13-1.41-.16-1.14-.07-2.79-.09-5.2-.08h0ZM124.94,58.32h.9c13.59-.03,27.71,4.98,36.59,12.28l-3.04-1.11c-.82-.26-.86-.1-2.56-1.45-1.16-.92-2.15-1.6-3-2.05-.39-.23-.81-.4-1.24-.53-.47-.12-.96-.1-1.41.07h0c-.37.13-.7.36-.95.67-.31.41-.41.93-.29,1.43.05.23.24.37.35.56-2.76-.47-5.74-.83-10.65-1l-5.88-.2-3.8-3.99-5.02-4.68ZM100.69,61.61c.03.45.06.82.09,1.34.05.99.11,1.95.18,2.7.03.38.06.7.09.97.03.24.04.44.13.72,0,0,.04.15.08.4.04.27.09.63.14,1.03.24,1.87.43,3.74.58,5.61.02.19.02.3.03.45l-.61.32c-.76.4-1.79.94-2.9,1.52-4.88,2.53-9.96,5.62-13.11,8.01-.43.33-.81.6-1.18.88-.16-1.29-.27-2.58-.33-3.88l-.2-3.55,1.5-1.96c4.22-5.47,9.57-10.81,15.52-14.57ZM140.33,73.12c1.17.01,2.59.05,4.04.12,2.91.14,6.04.38,7.94.65l2.83.38,1.25,1.4c3.23,3.58,7.68,10.82,9.89,16.14.05.11.07.18.11.28-.39-.13-.64-.25-1.19-.38-1.72-.42-3.45-.8-5.19-1.14-3.87-.76-8.24-1.46-11.24-1.73l-1.94-.17-2.21-4.53c-1.42-2.91-3.66-6.9-5.08-9.04l-1.28-1.93c.5-.03,1.13-.06,2.07-.05h0ZM130.48,73.73l.99,1.24c2.29,2.87,4.91,7.08,7.01,11.27.53,1.07.93,1.88,1.18,2.47.06.13.08.21.12.31-.03,0-.02,0-.05,0-2.4.02-6.24.68-10.45,1.65s-8.72,2.25-12.24,3.56l-3.31,1.23c-.61.22-.81.29-1.1.39-.69-1.89-3.56-11.89-4.13-14.52l-.44-2,.54-.23c4.67-2,14.34-4.52,19.8-5.14h0l2.08-.24ZM164.21,76.96l3.14,1.13c3.29,1.4,3.05,1.2,4.86,3.54,2.9,3.74,4.9,9.52,6.31,15.94-.18-.14-.32-.29-.53-.44-.83-.59-1.97-1.24-3.37-1.95-.39-.2-.75-.43-1.1-.7-.12-.09-.22-.19-.33-.3l-.06-.08c-.19-.44-1.08-2.54-2.05-4.82-2.03-4.8-3.82-7.99-6.88-12.32h0ZM103.14,81.5c.02.24.04.45.09.74.07.38.16.86.28,1.41.23,1.11.54,2.53.88,4.04.7,3.02,1.53,6.38,2.09,8.37l.59,2.09-2.87,1.53c-4.01,2.14-8.9,5.15-12.23,7.37v-.22l-2.02,1.44c-.41.3-.75.52-1.09.76l-.02-.04c-.3-.86-.69-2.11-1.1-3.56-.89-3.19-1.65-6.42-2.3-9.67-.19-1.01-.35-1.73-.39-2.18-.05-.46-.03-.51.05-.68.05-.1.32-.41.88-.87,4.68-3.69,9.72-6.91,15.05-9.59.84-.42,1.5-.71,1.97-.9.06-.03.08-.03.13-.05ZM78.18,88.8l.1,1.51-.95,1.25c.3-.99.57-2.01.84-2.76ZM173.18,94.24l.03.07.02.1-.02.25-.11.22-.05.04c-.25-.22-.47-.48-.45-.43l.59-.25ZM142.36,95.21c.1.25.22.52.36.88,1.48,3.95,2.85,7.93,4.11,11.96l1.43,4.63-3,.15c-8.09.43-15.98,2.06-22.31,4.64-.69.28-1.36.54-1.87.72l-.09.03c-.05-.08-.08-.13-.13-.23-.43-.85-.84-1.71-1.2-2.59-1.12-2.73-2.18-5.47-3.19-8.24-.48-1.31-.95-2.63-1.41-3.95-.15-.44-.26-.78-.35-1.07.25-.14.52-.29.95-.49,1.48-.65,2.98-1.23,4.5-1.75,3.59-1.25,8.03-2.55,11.15-3.18,3.49-.65,7.01-1.14,10.54-1.48l.51-.04ZM149.33,95.23c4.07.08,11.44,1.3,16.78,2.92,1.27.39,2.03.67,2.39.87.4.21.33.16.47.44.1.2.35.86.59,1.7.25.84.52,1.91.78,3.06.51,2.31,1.01,5.05,1.31,7.44.15,1.22.28,2.49.36,3.54.07.91.08,1.56.08,1.84l-.51-.18c-3.04-1.11-8.89-2.5-13.66-3.28l-3.04-.5-1.3-4.69c-.91-3.25-1.91-6.46-3.02-9.65-.61-1.69-.98-2.75-1.24-3.51h0ZM79.14,97.71c.02.1.04.18.05.28.34,2.63,2.38,11.15,3.25,13.61.13.36.24.71.33,1.02-.79.58-1.95,1.37-3.15,2.4-.72.62-1.41,1.28-1.94,2.01-.37.52-.44,1.2-.52,1.87-.85-4.13-1.35-8.33-1.5-12.54-.12-3.25-.12-5.32,0-6.38.03-.3.05-.32.09-.44.09-.02.18,0,.27-.02h0c.26-.07.52-.19.79-.33.61-.31,1.19-.68,1.74-1.09.22-.16.38-.25.58-.39ZM179.17,100.7c.22,1.35.68,2.46.82,3.87.46,4.63-.35,10.11-1.72,15.9-.23-.23-.26-.59-.52-.78-.36-.27-.45-.39-.47-.43-.02-.04-.06-.14-.05-.56.05-1.74-.25-4.9-.7-8.47-.4-3.17-.91-6.32-1.51-9.45,1.09.38,1.93.62,2.74.58.5,0,.99-.2,1.36-.54.03-.03.01-.08.04-.12ZM108.97,104.8l.02.04c.22.57.49,1.35.75,2.16,1.03,3.01,2.11,5.99,3.25,8.96.62,1.62,1.18,3.11,1.59,4.2.15.39.24.65.34.93h-.02c-.52.32-1.28.74-2.1,1.18-3.74,1.99-9.46,5.68-12.63,8.16-.51.4-.95.73-1.34,1.02-.2-.29-.4-.58-.65-.99-.76-1.22-1.47-2.48-2.13-3.76-1.2-2.38-3.37-7.52-4.26-10.11l-.32-.92,2.65-1.9c2.95-2.12,6.89-4.61,10.12-6.47,1.34-.79,2.71-1.52,4.1-2.21.28-.13.43-.18.64-.27h0ZM149.94,119.36h0c.14.47.32,1.16.52,1.95.4,1.58.86,3.61,1.21,5.43.18.95.55,3.48.84,5.84.15,1.18.28,2.33.38,3.27.07.67.09,1,.11,1.32-.2.02-.21.03-.65.03-1.34,0-4.36.35-10.02,1.5h-.04s-.03.02-.03.02l-8.5,2.06-1.56-2.44c-2.08-3.23-4.1-6.51-6.05-9.82-.78-1.34-1.42-2.48-1.85-3.31-.11-.21-.16-.33-.25-.5.18-.08.28-.14.51-.24.95-.39,2.31-.87,3.82-1.37,3.03-.99,6.7-2.03,9.04-2.48,1.71-.33,5-.73,7.86-.99,1.43-.13,2.77-.22,3.76-.26.3-.01.6-.02.9-.02ZM76.95,119.58s.01.03.02.05c0,.01,0,.02,0,.03v-.08ZM156.66,119.84c.61.08,1.29.17,2.11.28,4.07.6,10.18,2.04,12.7,2.98l1.01.37.02,3.26c.01,2.24-.08,5.68-.2,7.54-.1,1.54-.19,2.4-.33,2.94-.14.55-.31.86-.78,1.56-.2.31-.42.61-.67.89-.15.15-.2.17-.26.18-.07.02-.82-.02-2.21-.42h-.02s-5.31-1.31-5.31-1.31h-.03s-.04-.02-.04-.02c-1.49-.29-2.83-.55-3.4-.67-.12-.65-.2-1.31-.25-1.97-.31-3.85-1.14-9.55-2.01-13.86-.12-.59-.23-1.18-.33-1.77h0ZM85.28,119.91c2,4.81,4.56,10.28,6.27,13.16.6,1,1.14,1.92,1.54,2.59l.18.31-.04.04c-.41.43-.98,1.02-1.61,1.65-.68.69-1.3,1.4-1.77,2.02-.22.28-.42.58-.61.89-.2.31-.33.65-.37,1.01-.04.36,0,.73.12,1.08-3.64-4.1-6.72-8.69-8.76-13.54-.94-2.23-1.57-4.86-2.23-7.45.06.07.1.15.16.22.4.4.83.9,1.58,1.03.37.06.75,0,1.09-.14.27-.1.49-.23.73-.37.68-.38,1.95-1.25,3.04-2.05.41-.3.48-.32.68-.45ZM177.39,124.22c-.05.25-.13.5-.19.74l.03-.69.15-.06ZM118.16,127.48c.36.81.81,1.73,1.69,3.28,1.16,2.02,2.69,4.56,4.4,7.29,1.05,1.68,2.01,3.25,2.7,4.4.25.42.42.71.59,1.01-.41.27-.94.59-1.55.92-1.54.84-4.45,2.74-6.67,4.33l-3.1,2.22-3.35-3.21c-1.87-1.78-4.56-4.61-6.76-7.05-.95-1.04-1.87-2.1-2.77-3.18-.22-.27-.35-.44-.5-.64.36-.31.82-.69,1.42-1.14,1.32-1.01,3.07-2.25,4.73-3.33,2.13-1.35,4.33-2.59,6.58-3.72,1.04-.52,1.96-.94,2.58-1.18h.01s0,0,0,0ZM97.51,140.96c2.27,2.89,7.05,7.85,10.77,11.18,1.31,1.17,2.29,2.11,2.89,2.76.13.14.17.2.26.31-.26.33-.54.65-.81.96-.26.29-.5.54-.7.72-.11-.04-.2-.06-.35-.12-.61-.22-1.21-.46-1.8-.71-1.42-.59-2.83-1.23-4.21-1.91-5.06-2.55-9.76-6.31-13.8-10.69.16.11.32.2.49.25.77.18,1.56.08,2.98-.02.41-.03.71-.2.88-.29.23-.12.47-.26.73-.42.52-.33,1.11-.77,1.69-1.24l.98-.79ZM159.13,143.3h.29c.75,0,1.9.09,5.15.52,1.15.15,1.75.27,2.41.38-.1.11-.16.18-.28.29-.84.82-1.99,1.82-3.21,2.8-1.69,1.37-3.17,2.34-4.47,3.18.07-2.39.14-4.78.13-7.19h0ZM153.41,143.31v10.61c-2.56,1.29-4.99,2.41-7.5,3.26-.07-.07-.12-.1-.2-.2-.61-.65-1.19-1.32-1.75-2-1.59-1.93-3.12-3.91-4.58-5.94-.8-1.12-1.39-1.93-1.75-2.48-.05-.08-.07-.11-.1-.18.33-.11.71-.23,1.37-.44,3.83-1.21,8.8-2.19,12.63-2.48l1.9-.15ZM131.24,148.82l.47.67,2.23,3.15.19.27h.01l4.35,5.95c-3.16.57-6.19,1.01-9.96.99l-.08-.03c-.17-.06-.34-.12-.5-.2-.52-.26-1.02-.55-1.52-.85-1.09-.67-2.16-1.37-3.21-2.12l-2.23-1.65c1.51-1.13,4.02-2.76,6.38-4.13,1.28-.74,2.47-1.39,3.34-1.82.23-.11.35-.16.52-.23h0ZM116.7,158.79l.15.09-.2-.03s.05-.06.05-.06ZM128.44,159.86v.64c.06,0-.28-.11-.58-.23v-.05s.15-.19.15-.19l.13-.09.16-.06h.08s.04-.01.06-.02Z"/>
    <g>
      <path fill="#002A86" d="M224.68,48.73L177.82,1.87C176.6.66,174.94-.02,173.21,0H35.83C32.3,0,29.43,2.87,29.43,6.4v172.8H0v56.32h29.43v14.08c0,3.53,2.87,6.4,6.4,6.4h184.32c3.53,0,6.4-2.87,6.4-6.4V55.36c.07-2.85.01-4.55-1.87-6.63ZM203.22,45.38l-20.3-1.75-1.75-20.3,22.04,22.04ZM35.01,218.15c-1.8-.89-3.21-2.02-4.22-3.38l4.92-3.8c.59.75,1.38,1.41,2.38,1.98,1,.57,2.14.86,3.42.86.93,0,1.73-.17,2.4-.5.67-.33,1-.89,1-1.66,0-.37-.07-.71-.2-1-.13-.29-.4-.57-.8-.84-.4-.27-.95-.53-1.64-.8-.69-.27-1.6-.57-2.72-.92-1.28-.4-2.43-.83-3.46-1.28-1.03-.45-1.91-1-2.64-1.64-.73-.64-1.29-1.39-1.68-2.26-.39-.87-.58-1.9-.58-3.1s.24-2.33.72-3.32c.48-.99,1.17-1.83,2.06-2.54.89-.71,1.97-1.25,3.24-1.64,1.27-.39,2.69-.58,4.26-.58,1.36,0,2.57.13,3.62.4,1.05.27,1.99.61,2.8,1.04.81.43,1.51.92,2.1,1.48.59.56,1.07,1.12,1.44,1.68l-4.8,3.72c-.21-.32-.48-.65-.8-1-.32-.35-.7-.66-1.14-.94-.44-.28-.94-.51-1.5-.7s-1.17-.28-1.84-.28c-1.07,0-1.87.19-2.42.56-.55.37-.82.87-.82,1.48,0,.35.08.65.24.92.16.27.45.53.86.8.41.27.97.53,1.66.78.69.25,1.56.54,2.6.86,1.23.37,2.35.79,3.38,1.24,1.03.45,1.91,1.01,2.66,1.68.75.67,1.33,1.47,1.74,2.42.41.95.62,2.07.62,3.38,0,1.41-.29,2.63-.86,3.66-.57,1.03-1.34,1.88-2.3,2.56s-2.08,1.19-3.36,1.52c-1.28.33-2.63.5-4.04.5-2.4,0-4.5-.45-6.3-1.34ZM213.75,243.2H42.23v-7.68h162.57v-56.32H42.23V12.8h125.19l3.21,37.29c.27,3.1,2.73,5.57,5.83,5.83l37.29,3.21v184.07ZM72.11,202.13v-9.88h7.16v26.68h-7.16v-10.56h-8.4v10.56h-7.16v-26.68h7.16v9.88h8.4ZM82.75,218.93l10.36-26.72h6.68l10.44,26.72h-7.68l-1.72-4.6h-8.96l-1.76,4.6h-7.36ZM113.71,218.93v-26.68h8.44c1.44,0,2.89.08,4.36.24,1.47.16,2.8.56,4,1.2,1.33.72,2.33,1.73,3,3.02.67,1.29,1,2.74,1,4.34,0,1.71-.37,3.25-1.12,4.64-.75,1.39-1.83,2.44-3.24,3.16-.91.45-1.87.79-2.9,1-1.03.21-2.13.32-3.3.32h-3.2v8.76h-7.04ZM155.79,202.77v5.64h-9.64v4.36h12.68v6.16h-19.84v-26.68h19v6.12h-11.84v4.4h9.64Z"/>
      <polygon fill="#002A86" points="96.31 200.77 93.43 208.89 99.19 208.89 96.31 200.77"/>
      <path fill="#002A86" d="M126.49,203.52c.63-.56.94-1.33.94-2.32s-.31-1.75-.94-2.28c-.63-.53-1.45-.8-2.46-.8h-3.28v6.24h3.36c.96,0,1.75-.28,2.38-.84Z"/>
    </g>
  </g>
</svg>