<!-- 
COLLECTION: Gis Mapping Icons
LICENSE: GPL License
AUTHOR: Viglino 
-->
<svg width="256px" height="256px" viewBox="-1 0 103 103" xmlns="http://www.w3.org/2000/svg" xmlns:xlink="http://www.w3.org/1999/xlink" aria-hidden="true" role="img" class="iconify iconify--gis" preserveAspectRatio="xMidYMid meet" fill="#000000"><g id="SVGRepo_bgCarrier" stroke-width="0"></g><g id="SVGRepo_tracerCarrier" stroke-linecap="butt" stroke-linejoin="butt"></g><g id="SVGRepo_iconCarrier"><path d="M2.5 12.5A2.5 2.5 0 0 0 0 15v70a2.5 2.5 0 0 0 2.5 2.5h95A2.5 2.5 0 0 0 100 85V15a2.5 2.5 0 0 0-2.5-2.5zm2.5 5h43.745l-.033 5.709l-16.68 27.883L5 64.367zm46.747 0H95v26.108l-25.982.397l-17.304-20.853zm-1.432 8.857l16.36 19.53l-5.86 12.244l-9.934 1.396l-15.722-7.808zM95 46.761V82.5h-7.232L63.637 59.213l5.84-12.204zm-61.991 7.184l16.15 8.053L50.966 82.5H5V67.674zm28.26 7.15L83.448 82.5H53.98L52.2 62.371z" stroke="#FFFFFF" stroke-width="3" fill="#FFFFFF"></path><path d="M60.366 68.73a4 4 0 0 0-4 4a4 4 0 0 0 4 4a4 4 0 0 0 4-4a4 4 0 0 0-4-4z" fill="#FFFFFF"></path><path d="M79.462 54.984a4 4 0 0 0-4 4a4 4 0 0 0 4 4a4 4 0 0 0 4-4a4 4 0 0 0-4-4z" fill="#FFFFFF"></path><path d="M74.561 26.805a4 4 0 0 0-4 4a4 4 0 0 0 4 4a4 4 0 0 0 4-4a4 4 0 0 0-4-4z" fill="#FFFFFF"></path><path d="M23.979 26.105a4 4 0 0 0-4 4a4 4 0 0 0 4 4a4 4 0 0 0 4-4a4 4 0 0 0-4-4z" fill="#FFFFFF"></path><path d="M53.908 42.907a4 4 0 0 0-4 4a4 4 0 0 0 4 4a4 4 0 0 0 4-4a4 4 0 0 0-4-4z" fill="#FFFFFF"></path><path d="M39.03 64.435a4 4 0 0 0-4 4a4 4 0 0 0 4 4a4 4 0 0 0 4-4a4 4 0 0 0-4-4z" fill="#FFFFFF"></path></g></svg>