<svg xmlns="http://www.w3.org/2000/svg" viewBox="0 0 226.57 256">
  <g>
    <g>
      <path fill="#002A86" d="M44.97,203.52c.63-.56.94-1.33.94-2.32s-.31-1.75-.94-2.28c-.63-.53-1.45-.8-2.46-.8h-3.28v6.24h3.36c.96,0,1.75-.28,2.38-.84Z"/>
      <path fill="#002A86" d="M224.68,48.73L177.82,1.87C176.6.66,174.94-.02,173.21,0H35.83C32.3,0,29.43,2.87,29.43,6.4v172.8H0v56.32h29.43v14.08c0,3.53,2.87,6.4,6.4,6.4h184.32c3.53,0,6.4-2.87,6.4-6.4V55.36c.07-2.85.01-4.55-1.87-6.63ZM203.22,45.38l-20.3-1.75-1.75-20.3,22.04,22.04ZM39.23,218.93h-7.04v-26.68h8.44c1.44,0,2.89.08,4.36.24,1.47.16,2.8.56,4,1.2,1.33.72,2.33,1.73,3,3.02.67,1.29,1,2.74,1,4.34,0,1.71-.37,3.25-1.12,4.64-.75,1.39-1.83,2.44-3.24,3.16-.91.45-1.87.79-2.9,1-1.03.21-2.13.32-3.3.32h-3.2v8.76ZM213.75,243.2H42.23v-7.68h162.57v-56.32H42.23V12.8h125.19l3.21,37.29c.27,3.1,2.73,5.57,5.83,5.83l37.29,3.21v184.07ZM57.47,218.93v-26.68h7.28c1.2,0,2.48.05,3.84.16s2.61.35,3.76.72c1.33.45,2.51,1.08,3.52,1.88,1.01.8,1.86,1.74,2.54,2.82.68,1.08,1.19,2.27,1.54,3.58.35,1.31.52,2.68.52,4.12s-.17,2.77-.52,4.08c-.35,1.31-.87,2.5-1.56,3.58-.69,1.08-1.55,2.03-2.56,2.84-1.01.81-2.17,1.46-3.48,1.94-1.15.4-2.37.66-3.66.78-1.29.12-2.58.18-3.86.18h-7.36ZM101.95,203.29v6.04h-9.24v9.6h-7.16v-26.68h18.76v6.16h-11.6v4.88h9.24Z"/>
      <path fill="#002A86" d="M73.19,205.6c0-2.24-.57-4.01-1.72-5.3-1.15-1.29-2.8-1.94-4.96-1.94h-1.88v14.44h1.84c2.13,0,3.79-.63,4.96-1.9,1.17-1.27,1.76-3.03,1.76-5.3Z"/>
    </g>
    <path fill="#002A86" d="M110.27,64.33c1.21,12.66.38,31.95-5.96,53.06-.78,1.53-3.42,7.58-4.19,9-16.73,5.13-32.39,12.85-35.34,23.55-1.15,4.23-2.09,8.46.91,11.6,3.13,3.26,7.02,3,11.28,3,10.3,0,21.01-8.83,32.7-29.01,4.24-1.05,28.69-4.03,33.83-3.97,14.1,14.41,25.51,20.41,34.82,20.41,5.85,0,10.89-.95,13.82-6.12,2.04-3.61-.96-7.78-2.98-11.44-6.69-6.41-25.62-12.86-39.28-13.85-1.18-1.28-3.36-4.62-4.58-6-10.89-17.24-18.71-39.46-20.82-51.73-.27-2.81-.57-5.15-.82-6.86-.9-6.49-4.98-7.47-7.33-7.47-2.04,0-4,.88-5.35,2.42-2.19,2.48-1.86,5.16-1.64,6.95.2,1.76.52,4.08.93,6.44ZM75.57,154.2c-3.7-3.7,10.98-16.03,19.92-16.03,0,6.38-14.22,19.72-19.92,16.03ZM181.57,142.71c-4.5,4.87-21.62-5.75-20.13-11,3.44-3.71,23.96,6.23,20.13,11ZM119.6,86.23c2.62,5.31,11.61,30.25,14.8,34.58-1.56.15-19.58,2.58-20.56,2.7,2.04-4.99,4.57-31.5,5.76-37.28Z"/>
  </g>
</svg>