<svg width="239" height="37" viewBox="0 0 239 37" fill="none" xmlns="http://www.w3.org/2000/svg">
<path d="M62.642 30V8.18182H65.2841V27.6562H75.4261V30H62.642ZM83.9915 30.3835C82.9545 30.3835 82.0135 30.1882 81.1683 29.7976C80.3232 29.3999 79.652 28.8281 79.1548 28.0824C78.6577 27.3295 78.4091 26.4205 78.4091 25.3551C78.4091 24.4176 78.5938 23.6577 78.9631 23.0753C79.3324 22.4858 79.826 22.0241 80.4439 21.6903C81.0618 21.3565 81.7436 21.108 82.4893 20.9446C83.2422 20.7741 83.9986 20.6392 84.7585 20.5398C85.7528 20.4119 86.5589 20.3161 87.1768 20.2521C87.8018 20.1811 88.2564 20.0639 88.5405 19.9006C88.8317 19.7372 88.9773 19.4531 88.9773 19.0483V18.9631C88.9773 17.9119 88.6896 17.0952 88.1143 16.5128C87.5462 15.9304 86.6832 15.6392 85.5256 15.6392C84.3253 15.6392 83.3842 15.902 82.7024 16.4276C82.0206 16.9531 81.5412 17.5142 81.2642 18.1108L78.8778 17.2585C79.304 16.2642 79.8722 15.4901 80.5824 14.9361C81.2997 14.375 82.081 13.9844 82.9261 13.7642C83.7784 13.5369 84.6165 13.4233 85.4403 13.4233C85.9659 13.4233 86.5696 13.4872 87.2514 13.6151C87.9403 13.7358 88.6044 13.9879 89.2436 14.3714C89.8899 14.755 90.4261 15.3338 90.8523 16.108C91.2784 16.8821 91.4915 17.919 91.4915 19.2188V30H88.9773V27.7841H88.8494C88.679 28.1392 88.3949 28.5192 87.9972 28.924C87.5994 29.3288 87.0703 29.6733 86.4098 29.9574C85.7493 30.2415 84.9432 30.3835 83.9915 30.3835ZM84.375 28.125C85.3693 28.125 86.2074 27.9297 86.8892 27.5391C87.5781 27.1484 88.0966 26.6442 88.4446 26.0263C88.7997 25.4084 88.9773 24.7585 88.9773 24.0767V21.7756C88.8707 21.9034 88.6364 22.0206 88.2741 22.1271C87.919 22.2266 87.5071 22.3153 87.0384 22.3935C86.5767 22.4645 86.1257 22.5284 85.6854 22.5852C85.2521 22.6349 84.9006 22.6776 84.6307 22.7131C83.9773 22.7983 83.3665 22.9368 82.7983 23.1286C82.2372 23.3132 81.7827 23.5937 81.4347 23.9702C81.0938 24.3395 80.9233 24.8437 80.9233 25.483C80.9233 26.3565 81.2464 27.017 81.8928 27.4645C82.5462 27.9048 83.3736 28.125 84.375 28.125ZM98.5946 20.1562V30H96.0804V13.6364H98.5094V16.1932H98.7225C99.106 15.3622 99.6884 14.6946 100.47 14.1903C101.251 13.679 102.259 13.4233 103.495 13.4233C104.603 13.4233 105.573 13.6506 106.404 14.1051C107.235 14.5526 107.881 15.2344 108.343 16.1506C108.804 17.0597 109.035 18.2102 109.035 19.6023V30H106.521V19.7727C106.521 18.4872 106.187 17.4858 105.519 16.7685C104.852 16.044 103.936 15.6818 102.771 15.6818C101.968 15.6818 101.251 15.8558 100.619 16.2038C99.9938 16.5518 99.5002 17.0597 99.138 17.7273C98.7757 18.3949 98.5946 19.2045 98.5946 20.1562ZM119.808 30.3409C118.445 30.3409 117.241 29.9964 116.197 29.3075C115.153 28.6115 114.336 27.6314 113.746 26.3672C113.157 25.0959 112.862 23.5938 112.862 21.8608C112.862 20.142 113.157 18.6506 113.746 17.3864C114.336 16.1222 115.156 15.1456 116.207 14.4567C117.259 13.7678 118.473 13.4233 119.851 13.4233C120.916 13.4233 121.758 13.6009 122.376 13.956C123.001 14.304 123.477 14.7017 123.803 15.1491C124.137 15.5895 124.396 15.9517 124.581 16.2358H124.794V8.18182H127.308V30H124.879V27.4858H124.581C124.396 27.7841 124.134 28.1605 123.793 28.6151C123.452 29.0625 122.965 29.4638 122.333 29.8189C121.701 30.1669 120.859 30.3409 119.808 30.3409ZM120.149 28.0824C121.158 28.0824 122.01 27.8196 122.706 27.294C123.402 26.7614 123.931 26.0263 124.293 25.0888C124.656 24.1442 124.837 23.054 124.837 21.8182C124.837 20.5966 124.659 19.5277 124.304 18.6115C123.949 17.6882 123.423 16.9709 122.727 16.4595C122.031 15.9411 121.172 15.6818 120.149 15.6818C119.084 15.6818 118.196 15.9553 117.486 16.5021C116.783 17.0419 116.254 17.777 115.898 18.7074C115.55 19.6307 115.376 20.6676 115.376 21.8182C115.376 22.983 115.554 24.0412 115.909 24.9929C116.271 25.9375 116.804 26.6903 117.507 27.2514C118.217 27.8054 119.098 28.0824 120.149 28.0824ZM132.262 30V13.6364H134.691V16.1932H134.904C135.245 15.3196 135.795 14.6413 136.555 14.1584C137.315 13.6683 138.228 13.4233 139.293 13.4233C140.373 13.4233 141.271 13.6683 141.989 14.1584C142.713 14.6413 143.278 15.3196 143.683 16.1932H143.853C144.272 15.348 144.901 14.6768 145.739 14.1797C146.577 13.6754 147.582 13.4233 148.754 13.4233C150.217 13.4233 151.413 13.8814 152.344 14.7976C153.274 15.7067 153.739 17.1236 153.739 19.0483V30H151.225V19.0483C151.225 17.8409 150.895 16.978 150.234 16.4595C149.574 15.9411 148.796 15.6818 147.901 15.6818C146.751 15.6818 145.859 16.0298 145.227 16.7259C144.595 17.4148 144.279 18.2884 144.279 19.3466V30H141.722V18.7926C141.722 17.8622 141.42 17.1129 140.817 16.5447C140.213 15.9695 139.435 15.6818 138.484 15.6818C137.83 15.6818 137.219 15.8558 136.651 16.2038C136.09 16.5518 135.636 17.0348 135.288 17.6527C134.947 18.2635 134.776 18.9702 134.776 19.7727V30H132.262ZM163.152 30.3835C162.115 30.3835 161.174 30.1882 160.328 29.7976C159.483 29.3999 158.812 28.8281 158.315 28.0824C157.818 27.3295 157.569 26.4205 157.569 25.3551C157.569 24.4176 157.754 23.6577 158.123 23.0753C158.493 22.4858 158.986 22.0241 159.604 21.6903C160.222 21.3565 160.904 21.108 161.65 20.9446C162.402 20.7741 163.159 20.6392 163.919 20.5398C164.913 20.4119 165.719 20.3161 166.337 20.2521C166.962 20.1811 167.417 20.0639 167.701 19.9006C167.992 19.7372 168.137 19.4531 168.137 19.0483V18.9631C168.137 17.9119 167.85 17.0952 167.275 16.5128C166.706 15.9304 165.843 15.6392 164.686 15.6392C163.485 15.6392 162.544 15.902 161.863 16.4276C161.181 16.9531 160.701 17.5142 160.424 18.1108L158.038 17.2585C158.464 16.2642 159.032 15.4901 159.743 14.9361C160.46 14.375 161.241 13.9844 162.086 13.7642C162.939 13.5369 163.777 13.4233 164.6 13.4233C165.126 13.4233 165.73 13.4872 166.412 13.6151C167.1 13.7358 167.765 13.9879 168.404 14.3714C169.05 14.755 169.586 15.3338 170.012 16.108C170.439 16.8821 170.652 17.919 170.652 19.2188V30H168.137V27.7841H168.01C167.839 28.1392 167.555 28.5192 167.157 28.924C166.76 29.3288 166.23 29.6733 165.57 29.9574C164.909 30.2415 164.103 30.3835 163.152 30.3835ZM163.535 28.125C164.529 28.125 165.368 27.9297 166.049 27.5391C166.738 27.1484 167.257 26.6442 167.605 26.0263C167.96 25.4084 168.137 24.7585 168.137 24.0767V21.7756C168.031 21.9034 167.797 22.0206 167.434 22.1271C167.079 22.2266 166.667 22.3153 166.199 22.3935C165.737 22.4645 165.286 22.5284 164.846 22.5852C164.412 22.6349 164.061 22.6776 163.791 22.7131C163.137 22.7983 162.527 22.9368 161.958 23.1286C161.397 23.3132 160.943 23.5937 160.595 23.9702C160.254 24.3395 160.083 24.8437 160.083 25.483C160.083 26.3565 160.407 27.017 161.053 27.4645C161.706 27.9048 162.534 28.125 163.535 28.125ZM175.241 36.1364V13.6364H177.67V16.2358H177.968C178.153 15.9517 178.408 15.5895 178.735 15.1491C179.069 14.7017 179.545 14.304 180.162 13.956C180.787 13.6009 181.633 13.4233 182.698 13.4233C184.076 13.4233 185.29 13.7678 186.341 14.4567C187.393 15.1456 188.213 16.1222 188.802 17.3864C189.392 18.6506 189.687 20.142 189.687 21.8608C189.687 23.5938 189.392 25.0959 188.802 26.3672C188.213 27.6314 187.396 28.6115 186.352 29.3075C185.308 29.9964 184.104 30.3409 182.741 30.3409C181.689 30.3409 180.848 30.1669 180.216 29.8189C179.584 29.4638 179.097 29.0625 178.756 28.6151C178.415 28.1605 178.153 27.7841 177.968 27.4858H177.755V36.1364H175.241ZM177.712 21.8182C177.712 23.054 177.893 24.1442 178.256 25.0888C178.618 26.0263 179.147 26.7614 179.843 27.294C180.539 27.8196 181.391 28.0824 182.4 28.0824C183.451 28.0824 184.328 27.8054 185.031 27.2514C185.741 26.6903 186.274 25.9375 186.629 24.9929C186.991 24.0412 187.172 22.983 187.172 21.8182C187.172 20.6676 186.995 19.6307 186.64 18.7074C186.292 17.777 185.763 17.0419 185.052 16.5021C184.349 15.9553 183.465 15.6818 182.4 15.6818C181.377 15.6818 180.518 15.9411 179.822 16.4595C179.126 16.9709 178.6 17.6882 178.245 18.6115C177.89 19.5277 177.712 20.5966 177.712 21.8182ZM193.522 36.1364V13.6364H195.951V16.2358H196.249C196.434 15.9517 196.689 15.5895 197.016 15.1491C197.35 14.7017 197.826 14.304 198.444 13.956C199.069 13.6009 199.914 13.4233 200.979 13.4233C202.357 13.4233 203.572 13.7678 204.623 14.4567C205.674 15.1456 206.494 16.1222 207.084 17.3864C207.673 18.6506 207.968 20.142 207.968 21.8608C207.968 23.5938 207.673 25.0959 207.084 26.3672C206.494 27.6314 205.677 28.6115 204.633 29.3075C203.589 29.9964 202.385 30.3409 201.022 30.3409C199.971 30.3409 199.129 30.1669 198.497 29.8189C197.865 29.4638 197.378 29.0625 197.037 28.6151C196.697 28.1605 196.434 27.7841 196.249 27.4858H196.036V36.1364H193.522ZM195.993 21.8182C195.993 23.054 196.175 24.1442 196.537 25.0888C196.899 26.0263 197.428 26.7614 198.124 27.294C198.82 27.8196 199.672 28.0824 200.681 28.0824C201.732 28.0824 202.609 27.8054 203.312 27.2514C204.023 26.6903 204.555 25.9375 204.91 24.9929C205.273 24.0412 205.454 22.983 205.454 21.8182C205.454 20.6676 205.276 19.6307 204.921 18.7074C204.573 17.777 204.044 17.0419 203.334 16.5021C202.631 15.9553 201.746 15.6818 200.681 15.6818C199.658 15.6818 198.799 15.9411 198.103 16.4595C197.407 16.9709 196.881 17.6882 196.526 18.6115C196.171 19.5277 195.993 20.5966 195.993 21.8182ZM218.664 30.3409C217.087 30.3409 215.727 29.9929 214.584 29.2969C213.447 28.5938 212.57 27.6136 211.952 26.3565C211.341 25.0923 211.036 23.6222 211.036 21.946C211.036 20.2699 211.341 18.7926 211.952 17.5142C212.57 16.2287 213.43 15.2273 214.53 14.5099C215.638 13.7855 216.931 13.4233 218.408 13.4233C219.26 13.4233 220.102 13.5653 220.933 13.8494C221.764 14.1335 222.52 14.5952 223.202 15.2344C223.884 15.8665 224.427 16.7045 224.832 17.7486C225.237 18.7926 225.439 20.0781 225.439 21.6051V22.6705H212.826V20.4972H222.883C222.883 19.5739 222.698 18.75 222.329 18.0256C221.966 17.3011 221.448 16.7294 220.773 16.3104C220.106 15.8913 219.317 15.6818 218.408 15.6818C217.407 15.6818 216.54 15.9304 215.809 16.4276C215.084 16.9176 214.527 17.5568 214.136 18.3452C213.746 19.1335 213.55 19.9787 213.55 20.8807V22.3295C213.55 23.5653 213.763 24.6129 214.189 25.4723C214.623 26.3246 215.223 26.9744 215.99 27.4219C216.757 27.8622 217.648 28.0824 218.664 28.0824C219.324 28.0824 219.921 27.9901 220.454 27.8054C220.993 27.6136 221.459 27.3295 221.849 26.9531C222.24 26.5696 222.542 26.0937 222.755 25.5256L225.184 26.2074C224.928 27.0312 224.498 27.7557 223.895 28.3807C223.291 28.9986 222.545 29.4815 221.657 29.8295C220.77 30.1705 219.772 30.3409 218.664 30.3409ZM229.264 30V13.6364H231.693V16.108H231.863C232.162 15.2983 232.702 14.6413 233.483 14.1371C234.264 13.6328 235.145 13.3807 236.125 13.3807C236.309 13.3807 236.54 13.3842 236.817 13.3913C237.094 13.3984 237.304 13.4091 237.446 13.4233V15.9801C237.361 15.9588 237.165 15.9268 236.86 15.8842C236.562 15.8345 236.246 15.8097 235.912 15.8097C235.116 15.8097 234.406 15.9766 233.781 16.3104C233.163 16.6371 232.673 17.0916 232.311 17.674C231.956 18.2493 231.778 18.9062 231.778 19.6449V30H229.264Z" fill="white"/>
<path d="M27.814 1.00999C27.8904 1.01841 27.9654 1.0369 28.037 1.06498L41.437 6.42698C41.6036 6.49431 41.7461 6.61028 41.8458 6.75976C41.9455 6.90925 41.9978 7.08532 41.996 7.265V35.865C41.9954 35.9824 41.9715 36.0986 41.9259 36.2068C41.8803 36.315 41.8138 36.4132 41.7302 36.4957C41.6466 36.5782 41.5476 36.6434 41.4387 36.6875C41.3299 36.7317 41.2134 36.7539 41.096 36.753C40.9825 36.7531 40.8701 36.731 40.765 36.688L27.7 31.462L14.631 36.683C14.4162 36.7705 14.1758 36.7705 13.961 36.683L0.56101 31.321C0.396706 31.2547 0.255812 31.1411 0.15627 30.9945C0.0567292 30.848 0.00303427 30.6751 0.00200411 30.498V1.89799C0.000404288 1.6614 0.0926486 1.43382 0.258535 1.26512C0.424421 1.09642 0.650415 1.00036 0.886999 0.997982C1.0048 0.997078 1.12166 1.01916 1.23101 1.06298L14.3 6.28498L27.369 1.06298C27.5104 1.00756 27.6636 0.989322 27.814 1.00999ZM1.78701 3.21499V29.884L13.404 34.52V7.86499L1.78701 3.21499ZM28.595 3.22898V29.884L40.212 34.533V7.86499L28.595 3.22898ZM26.808 3.22898L15.191 7.86399V34.519L26.808 29.884V3.22999V3.22898Z" fill="white"/>
</svg>
