<svg height='100px' width='100px'  fill="#000000" xmlns="http://www.w3.org/2000/svg" xmlns:xlink="http://www.w3.org/1999/xlink" version="1.1" x="0px" y="0px" viewBox="0 0 100 100" enable-background="new 0 0 100 100" xml:space="preserve"><g><g><g><path d="M60.2,47.748c0,8.545-15.899,30.527-15.899,30.527S29.249,56.293,29.249,47.748s6.931-15.476,15.476-15.476     S60.2,39.203,60.2,47.748z M34.271,48.58c0,5.773,4.68,10.453,10.453,10.453c5.772,0,10.452-4.68,10.452-10.453     c0-5.772-4.68-10.453-10.452-10.453C38.951,38.127,34.271,42.807,34.271,48.58z"></path></g></g><path d="M50.562,49.073c-0.277,3.225-3.113,5.609-6.334,5.334s-5.607-3.113-5.33-6.334c0.275-3.223,3.111-5.607,6.334-5.332   C48.451,43.016,50.838,45.854,50.562,49.073z"></path></g></svg>