<svg width="239" height="36" viewBox="0 0 239 36" fill="none" xmlns="http://www.w3.org/2000/svg">
<path d="M62.642 29V7.18182H65.2841V26.6562H75.4261V29H62.642ZM83.9915 29.3835C82.9545 29.3835 82.0135 29.1882 81.1683 28.7976C80.3232 28.3999 79.652 27.8281 79.1548 27.0824C78.6577 26.3295 78.4091 25.4205 78.4091 24.3551C78.4091 23.4176 78.5938 22.6577 78.9631 22.0753C79.3324 21.4858 79.826 21.0241 80.4439 20.6903C81.0618 20.3565 81.7436 20.108 82.4893 19.9446C83.2422 19.7741 83.9986 19.6392 84.7585 19.5398C85.7528 19.4119 86.5589 19.3161 87.1768 19.2521C87.8018 19.1811 88.2564 19.0639 88.5405 18.9006C88.8317 18.7372 88.9773 18.4531 88.9773 18.0483V17.9631C88.9773 16.9119 88.6896 16.0952 88.1143 15.5128C87.5462 14.9304 86.6832 14.6392 85.5256 14.6392C84.3253 14.6392 83.3842 14.902 82.7024 15.4276C82.0206 15.9531 81.5412 16.5142 81.2642 17.1108L78.8778 16.2585C79.304 15.2642 79.8722 14.4901 80.5824 13.9361C81.2997 13.375 82.081 12.9844 82.9261 12.7642C83.7784 12.5369 84.6165 12.4233 85.4403 12.4233C85.9659 12.4233 86.5696 12.4872 87.2514 12.6151C87.9403 12.7358 88.6044 12.9879 89.2436 13.3714C89.8899 13.755 90.4261 14.3338 90.8523 15.108C91.2784 15.8821 91.4915 16.919 91.4915 18.2188V29H88.9773V26.7841H88.8494C88.679 27.1392 88.3949 27.5192 87.9972 27.924C87.5994 28.3288 87.0703 28.6733 86.4098 28.9574C85.7493 29.2415 84.9432 29.3835 83.9915 29.3835ZM84.375 27.125C85.3693 27.125 86.2074 26.9297 86.8892 26.5391C87.5781 26.1484 88.0966 25.6442 88.4446 25.0263C88.7997 24.4084 88.9773 23.7585 88.9773 23.0767V20.7756C88.8707 20.9034 88.6364 21.0206 88.2741 21.1271C87.919 21.2266 87.5071 21.3153 87.0384 21.3935C86.5767 21.4645 86.1257 21.5284 85.6854 21.5852C85.2521 21.6349 84.9006 21.6776 84.6307 21.7131C83.9773 21.7983 83.3665 21.9368 82.7983 22.1286C82.2372 22.3132 81.7827 22.5937 81.4347 22.9702C81.0938 23.3395 80.9233 23.8437 80.9233 24.483C80.9233 25.3565 81.2464 26.017 81.8928 26.4645C82.5462 26.9048 83.3736 27.125 84.375 27.125ZM98.5946 19.1562V29H96.0804V12.6364H98.5094V15.1932H98.7225C99.106 14.3622 99.6884 13.6946 100.47 13.1903C101.251 12.679 102.259 12.4233 103.495 12.4233C104.603 12.4233 105.573 12.6506 106.404 13.1051C107.235 13.5526 107.881 14.2344 108.343 15.1506C108.804 16.0597 109.035 17.2102 109.035 18.6023V29H106.521V18.7727C106.521 17.4872 106.187 16.4858 105.519 15.7685C104.852 15.044 103.936 14.6818 102.771 14.6818C101.968 14.6818 101.251 14.8558 100.619 15.2038C99.9938 15.5518 99.5002 16.0597 99.138 16.7273C98.7757 17.3949 98.5946 18.2045 98.5946 19.1562ZM119.808 29.3409C118.445 29.3409 117.241 28.9964 116.197 28.3075C115.153 27.6115 114.336 26.6314 113.746 25.3672C113.157 24.0959 112.862 22.5938 112.862 20.8608C112.862 19.142 113.157 17.6506 113.746 16.3864C114.336 15.1222 115.156 14.1456 116.207 13.4567C117.259 12.7678 118.473 12.4233 119.851 12.4233C120.916 12.4233 121.758 12.6009 122.376 12.956C123.001 13.304 123.477 13.7017 123.803 14.1491C124.137 14.5895 124.396 14.9517 124.581 15.2358H124.794V7.18182H127.308V29H124.879V26.4858H124.581C124.396 26.7841 124.134 27.1605 123.793 27.6151C123.452 28.0625 122.965 28.4638 122.333 28.8189C121.701 29.1669 120.859 29.3409 119.808 29.3409ZM120.149 27.0824C121.158 27.0824 122.01 26.8196 122.706 26.294C123.402 25.7614 123.931 25.0263 124.293 24.0888C124.656 23.1442 124.837 22.054 124.837 20.8182C124.837 19.5966 124.659 18.5277 124.304 17.6115C123.949 16.6882 123.423 15.9709 122.727 15.4595C122.031 14.9411 121.172 14.6818 120.149 14.6818C119.084 14.6818 118.196 14.9553 117.486 15.5021C116.783 16.0419 116.254 16.777 115.898 17.7074C115.55 18.6307 115.376 19.6676 115.376 20.8182C115.376 21.983 115.554 23.0412 115.909 23.9929C116.271 24.9375 116.804 25.6903 117.507 26.2514C118.217 26.8054 119.098 27.0824 120.149 27.0824ZM132.262 29V12.6364H134.691V15.1932H134.904C135.245 14.3196 135.795 13.6413 136.555 13.1584C137.315 12.6683 138.228 12.4233 139.293 12.4233C140.373 12.4233 141.271 12.6683 141.989 13.1584C142.713 13.6413 143.278 14.3196 143.683 15.1932H143.853C144.272 14.348 144.901 13.6768 145.739 13.1797C146.577 12.6754 147.582 12.4233 148.754 12.4233C150.217 12.4233 151.413 12.8814 152.344 13.7976C153.274 14.7067 153.739 16.1236 153.739 18.0483V29H151.225V18.0483C151.225 16.8409 150.895 15.978 150.234 15.4595C149.574 14.9411 148.796 14.6818 147.901 14.6818C146.751 14.6818 145.859 15.0298 145.227 15.7259C144.595 16.4148 144.279 17.2884 144.279 18.3466V29H141.722V17.7926C141.722 16.8622 141.42 16.1129 140.817 15.5447C140.213 14.9695 139.435 14.6818 138.484 14.6818C137.83 14.6818 137.219 14.8558 136.651 15.2038C136.09 15.5518 135.636 16.0348 135.288 16.6527C134.947 17.2635 134.776 17.9702 134.776 18.7727V29H132.262ZM163.152 29.3835C162.115 29.3835 161.174 29.1882 160.328 28.7976C159.483 28.3999 158.812 27.8281 158.315 27.0824C157.818 26.3295 157.569 25.4205 157.569 24.3551C157.569 23.4176 157.754 22.6577 158.123 22.0753C158.493 21.4858 158.986 21.0241 159.604 20.6903C160.222 20.3565 160.904 20.108 161.65 19.9446C162.402 19.7741 163.159 19.6392 163.919 19.5398C164.913 19.4119 165.719 19.3161 166.337 19.2521C166.962 19.1811 167.417 19.0639 167.701 18.9006C167.992 18.7372 168.137 18.4531 168.137 18.0483V17.9631C168.137 16.9119 167.85 16.0952 167.275 15.5128C166.706 14.9304 165.843 14.6392 164.686 14.6392C163.485 14.6392 162.544 14.902 161.863 15.4276C161.181 15.9531 160.701 16.5142 160.424 17.1108L158.038 16.2585C158.464 15.2642 159.032 14.4901 159.743 13.9361C160.46 13.375 161.241 12.9844 162.086 12.7642C162.939 12.5369 163.777 12.4233 164.6 12.4233C165.126 12.4233 165.73 12.4872 166.412 12.6151C167.1 12.7358 167.765 12.9879 168.404 13.3714C169.05 13.755 169.586 14.3338 170.012 15.108C170.439 15.8821 170.652 16.919 170.652 18.2188V29H168.137V26.7841H168.01C167.839 27.1392 167.555 27.5192 167.157 27.924C166.76 28.3288 166.23 28.6733 165.57 28.9574C164.909 29.2415 164.103 29.3835 163.152 29.3835ZM163.535 27.125C164.529 27.125 165.368 26.9297 166.049 26.5391C166.738 26.1484 167.257 25.6442 167.605 25.0263C167.96 24.4084 168.137 23.7585 168.137 23.0767V20.7756C168.031 20.9034 167.797 21.0206 167.434 21.1271C167.079 21.2266 166.667 21.3153 166.199 21.3935C165.737 21.4645 165.286 21.5284 164.846 21.5852C164.412 21.6349 164.061 21.6776 163.791 21.7131C163.137 21.7983 162.527 21.9368 161.958 22.1286C161.397 22.3132 160.943 22.5937 160.595 22.9702C160.254 23.3395 160.083 23.8437 160.083 24.483C160.083 25.3565 160.407 26.017 161.053 26.4645C161.706 26.9048 162.534 27.125 163.535 27.125ZM175.241 35.1364V12.6364H177.67V15.2358H177.968C178.153 14.9517 178.408 14.5895 178.735 14.1491C179.069 13.7017 179.545 13.304 180.162 12.956C180.787 12.6009 181.633 12.4233 182.698 12.4233C184.076 12.4233 185.29 12.7678 186.341 13.4567C187.393 14.1456 188.213 15.1222 188.802 16.3864C189.392 17.6506 189.687 19.142 189.687 20.8608C189.687 22.5938 189.392 24.0959 188.802 25.3672C188.213 26.6314 187.396 27.6115 186.352 28.3075C185.308 28.9964 184.104 29.3409 182.741 29.3409C181.689 29.3409 180.848 29.1669 180.216 28.8189C179.584 28.4638 179.097 28.0625 178.756 27.6151C178.415 27.1605 178.153 26.7841 177.968 26.4858H177.755V35.1364H175.241ZM177.712 20.8182C177.712 22.054 177.893 23.1442 178.256 24.0888C178.618 25.0263 179.147 25.7614 179.843 26.294C180.539 26.8196 181.391 27.0824 182.4 27.0824C183.451 27.0824 184.328 26.8054 185.031 26.2514C185.741 25.6903 186.274 24.9375 186.629 23.9929C186.991 23.0412 187.172 21.983 187.172 20.8182C187.172 19.6676 186.995 18.6307 186.64 17.7074C186.292 16.777 185.763 16.0419 185.052 15.5021C184.349 14.9553 183.465 14.6818 182.4 14.6818C181.377 14.6818 180.518 14.9411 179.822 15.4595C179.126 15.9709 178.6 16.6882 178.245 17.6115C177.89 18.5277 177.712 19.5966 177.712 20.8182ZM193.522 35.1364V12.6364H195.951V15.2358H196.249C196.434 14.9517 196.689 14.5895 197.016 14.1491C197.35 13.7017 197.826 13.304 198.444 12.956C199.069 12.6009 199.914 12.4233 200.979 12.4233C202.357 12.4233 203.572 12.7678 204.623 13.4567C205.674 14.1456 206.494 15.1222 207.084 16.3864C207.673 17.6506 207.968 19.142 207.968 20.8608C207.968 22.5938 207.673 24.0959 207.084 25.3672C206.494 26.6314 205.677 27.6115 204.633 28.3075C203.589 28.9964 202.385 29.3409 201.022 29.3409C199.971 29.3409 199.129 29.1669 198.497 28.8189C197.865 28.4638 197.378 28.0625 197.037 27.6151C196.697 27.1605 196.434 26.7841 196.249 26.4858H196.036V35.1364H193.522ZM195.993 20.8182C195.993 22.054 196.175 23.1442 196.537 24.0888C196.899 25.0263 197.428 25.7614 198.124 26.294C198.82 26.8196 199.672 27.0824 200.681 27.0824C201.732 27.0824 202.609 26.8054 203.312 26.2514C204.023 25.6903 204.555 24.9375 204.91 23.9929C205.273 23.0412 205.454 21.983 205.454 20.8182C205.454 19.6676 205.276 18.6307 204.921 17.7074C204.573 16.777 204.044 16.0419 203.334 15.5021C202.631 14.9553 201.746 14.6818 200.681 14.6818C199.658 14.6818 198.799 14.9411 198.103 15.4595C197.407 15.9709 196.881 16.6882 196.526 17.6115C196.171 18.5277 195.993 19.5966 195.993 20.8182ZM218.664 29.3409C217.087 29.3409 215.727 28.9929 214.584 28.2969C213.447 27.5938 212.57 26.6136 211.952 25.3565C211.341 24.0923 211.036 22.6222 211.036 20.946C211.036 19.2699 211.341 17.7926 211.952 16.5142C212.57 15.2287 213.43 14.2273 214.53 13.5099C215.638 12.7855 216.931 12.4233 218.408 12.4233C219.26 12.4233 220.102 12.5653 220.933 12.8494C221.764 13.1335 222.52 13.5952 223.202 14.2344C223.884 14.8665 224.427 15.7045 224.832 16.7486C225.237 17.7926 225.439 19.0781 225.439 20.6051V21.6705H212.826V19.4972H222.883C222.883 18.5739 222.698 17.75 222.329 17.0256C221.966 16.3011 221.448 15.7294 220.773 15.3104C220.106 14.8913 219.317 14.6818 218.408 14.6818C217.407 14.6818 216.54 14.9304 215.809 15.4276C215.084 15.9176 214.527 16.5568 214.136 17.3452C213.746 18.1335 213.55 18.9787 213.55 19.8807V21.3295C213.55 22.5653 213.763 23.6129 214.189 24.4723C214.623 25.3246 215.223 25.9744 215.99 26.4219C216.757 26.8622 217.648 27.0824 218.664 27.0824C219.324 27.0824 219.921 26.9901 220.454 26.8054C220.993 26.6136 221.459 26.3295 221.849 25.9531C222.24 25.5696 222.542 25.0937 222.755 24.5256L225.184 25.2074C224.928 26.0312 224.498 26.7557 223.895 27.3807C223.291 27.9986 222.545 28.4815 221.657 28.8295C220.77 29.1705 219.772 29.3409 218.664 29.3409ZM229.264 29V12.6364H231.693V15.108H231.863C232.162 14.2983 232.702 13.6413 233.483 13.1371C234.264 12.6328 235.145 12.3807 236.125 12.3807C236.309 12.3807 236.54 12.3842 236.817 12.3913C237.094 12.3984 237.304 12.4091 237.446 12.4233V14.9801C237.361 14.9588 237.165 14.9268 236.86 14.8842C236.562 14.8345 236.246 14.8097 235.912 14.8097C235.116 14.8097 234.406 14.9766 233.781 15.3104C233.163 15.6371 232.673 16.0916 232.311 16.674C231.956 17.2493 231.778 17.9062 231.778 18.6449V29H229.264Z" fill="#fff"/>
<path d="M28 1.10001L40.681 6L40.966 28.5V34.534L28 29.534V1.10001Z" fill="#008457"/>
<path d="M27.814 0.00999068C27.8904 0.0184114 27.9654 0.0368978 28.037 0.0649834L41.437 5.42698C41.6036 5.49431 41.7461 5.61028 41.8458 5.75976C41.9455 5.90925 41.9978 6.08532 41.996 6.265V34.865C41.9954 34.9824 41.9715 35.0986 41.9259 35.2068C41.8803 35.315 41.8138 35.4132 41.7302 35.4957C41.6466 35.5782 41.5476 35.6434 41.4387 35.6875C41.3299 35.7317 41.2134 35.7539 41.096 35.753C40.9825 35.7531 40.8701 35.731 40.765 35.688L27.7 30.462L14.631 35.683C14.4162 35.7705 14.1758 35.7705 13.961 35.683L0.56101 30.321C0.396706 30.2547 0.255812 30.1411 0.15627 29.9945C0.0567292 29.848 0.00303427 29.6751 0.00200411 29.498V0.897991C0.000404288 0.661401 0.0926486 0.433816 0.258535 0.265118C0.424421 0.0964197 0.650415 0.000358432 0.886999 -0.00201799C1.0048 -0.00292223 1.12166 0.019159 1.23101 0.0629845L14.3 5.28498L27.369 0.0629845C27.5104 0.00756323 27.6636 -0.0106783 27.814 0.00999068ZM1.78701 2.21499V28.884L13.404 33.52V6.86499L1.78701 2.21499ZM28.595 2.22898V28.884L40.212 33.533V6.86499L28.595 2.22898ZM26.808 2.22898L15.191 6.86399V33.519L26.808 28.884V2.22999V2.22898Z" fill="#fff"/>
</svg>
